<!DOCTYPE svg PUBLIC "-//W3C//DTD SVG 1.1//EN" "http://www.w3.org/Graphics/SVG/1.1/DTD/svg11.dtd">
<!-- Uploaded to: SVG Repo, www.svgrepo.com, Transformed by: SVG Repo Mixer Tools -->
<svg fill="#ffffff" version="1.1" id="Layer_1" xmlns="http://www.w3.org/2000/svg" xmlns:xlink="http://www.w3.org/1999/xlink" viewBox="0 0 512 512" xml:space="preserve" width="800px" height="800px">
<g id="SVGRepo_bgCarrier" stroke-width="0"/>
<g id="SVGRepo_tracerCarrier" stroke-linecap="round" stroke-linejoin="round"/>
<g id="SVGRepo_iconCarrier"> <g> <g> <path d="M500.094,364.217v-87.014h11.634v-0.001v-30.385h-11.637h-148.65v-38.986l11.748,8.896l18.344-24.223l-30.091-22.788 l-80.25-60.77V94.781l113.054-41.776L240.806,0v84.199v21.81v2.937l-80.25,60.77l-30.091,22.788l18.344,24.223l11.748-8.896 v38.986H11.905H0.269v30.385h11.636v87.014H0.269v30.385h11.636V512h148.651h30.385h130.116h30.385h148.651V394.602h11.636 v-30.385H500.094z M160.556,481.615H42.29v-87.013h118.266V481.615z M160.556,364.216H42.29v-87.014h118.266V364.216z M271.191,43.621l25.393,9.384l-25.393,9.384V43.621z M190.941,184.821l65.058-49.266l65.058,49.266v61.996H190.941V184.821z M321.057,481.615H190.941v-87.013h130.116V481.615z M321.057,364.217H190.941v-87.014h130.116V364.217z M469.708,481.615h-0.001 H351.442v-87.013h118.266V481.615z M469.708,364.217h-0.001H351.442v-87.014h118.266V364.217z"/> </g> </g> <g> <g> <rect x="111.006" y="305.684" width="30.385" height="30.051"/> </g> </g> <g> <g> <rect x="61.456" y="305.684" width="30.385" height="30.051"/> </g> </g> <g> <g> <rect x="111.006" y="423.082" width="30.385" height="30.051"/> </g> </g> <g> <g> <rect x="61.456" y="423.082" width="30.385" height="30.051"/> </g> </g> <g> <g> <rect x="265.585" y="305.684" width="30.385" height="30.051"/> </g> </g> <g> <g> <rect x="216.027" y="305.684" width="30.385" height="30.051"/> </g> </g> <g> <g> <rect x="265.585" y="188.286" width="30.385" height="30.051"/> </g> </g> <g> <g> <rect x="216.027" y="188.286" width="30.385" height="30.051"/> </g> </g> <g> <g> <rect x="265.585" y="423.082" width="30.385" height="30.051"/> </g> </g> <g> <g> <rect x="216.027" y="423.082" width="30.385" height="30.051"/> </g> </g> <g> <g> <rect x="420.154" y="305.684" width="30.385" height="30.051"/> </g> </g> <g> <g> <rect x="370.606" y="305.684" width="30.385" height="30.051"/> </g> </g> <g> <g> <rect x="420.154" y="423.082" width="30.385" height="30.051"/> </g> </g> <g> <g> <rect x="370.606" y="423.082" width="30.385" height="30.051"/> </g> </g> </g>
</svg>